<svg width="34" height="34" viewBox="0 0 34 34" fill="none" xmlns="http://www.w3.org/2000/svg">
<path d="M17 4.25C19.3375 4.25 21.25 6.1625 21.25 8.5C21.25 10.8375 19.3375 12.75 17 12.75C14.6625 12.75 12.75 10.8375 12.75 8.5C12.75 6.1625 14.6625 4.25 17 4.25ZM17 25.5C22.7375 25.5 29.325 28.2413 29.75 29.75H4.25C4.73875 28.22 11.2837 25.5 17 25.5ZM17 0C12.3038 0 8.5 3.80375 8.5 8.5C8.5 13.1962 12.3038 17 17 17C21.6963 17 25.5 13.1962 25.5 8.5C25.5 3.80375 21.6963 0 17 0ZM17 21.25C11.3263 21.25 0 24.0975 0 29.75V34H34V29.75C34 24.0975 22.6737 21.25 17 21.25Z" fill="#323232"/>
</svg>
